<svg id="Layer_4" data-name="Layer 4" xmlns="http://www.w3.org/2000/svg" xmlns:xlink="http://www.w3.org/1999/xlink" viewBox="0 0 50 48"><defs><style>.cls-1{fill:none;}.cls-2{clip-path:url(#clip-path);}.cls-3{clip-path:url(#clip-path-2);}.cls-4{fill:#34cc99;}</style><clipPath id="clip-path" transform="translate(5 5)"><path class="cls-1" d="M24,8H16V4h8V8ZM36,8H28V4a4,4,0,0,0-4-4H16a4,4,0,0,0-4,4V8H4a4,4,0,0,0-4,4L0,34a4,4,0,0,0,4,4H36a4,4,0,0,0,4-4V12A4,4,0,0,0,36,8Z"/></clipPath><clipPath id="clip-path-2" transform="translate(5 5)"><rect class="cls-1" x="-132" y="-948" width="320" height="3750"/></clipPath></defs><title>case_icon</title><g class="cls-2"><g class="cls-3"><rect class="cls-4" width="50" height="48"/></g></g></svg>